<!DOCTYPE svg PUBLIC "-//W3C//DTD SVG 1.1//EN" "http://www.w3.org/Graphics/SVG/1.1/DTD/svg11.dtd">
<!-- Uploaded to: SVG Repo, www.svgrepo.com, Transformed by: SVG Repo Mixer Tools -->
<svg fill="#808080" height="500px" width="500px" version="1.1" id="Capa_1" xmlns="http://www.w3.org/2000/svg" xmlns:xlink="http://www.w3.org/1999/xlink" viewBox="-3.74 -3.74 36.25 36.25" xml:space="preserve" stroke="#808080" stroke-width="0.00028769">

<g id="SVGRepo_bgCarrier" stroke-width="0"/>

<g id="SVGRepo_tracerCarrier" stroke-linecap="round" stroke-linejoin="round" stroke="#FFFFFF" stroke-width="5"> <g> <g id="c106_arrow"> <path d="M28.678,5.798L14.713,23.499c-0.16,0.201-0.495,0.201-0.658,0L0.088,5.798C-0.009,5.669-0.027,5.501,0.04,5.353 C0.111,5.209,0.26,5.12,0.414,5.12H28.35c0.16,0,0.31,0.089,0.378,0.233C28.798,5.501,28.776,5.669,28.678,5.798z"/> </g> <g id="Capa_1_26_"> </g> </g> </g>

<g id="SVGRepo_iconCarrier"> <g> <g id="c106_arrow"> <path d="M28.678,5.798L14.713,23.499c-0.16,0.201-0.495,0.201-0.658,0L0.088,5.798C-0.009,5.669-0.027,5.501,0.04,5.353 C0.111,5.209,0.26,5.12,0.414,5.12H28.35c0.16,0,0.31,0.089,0.378,0.233C28.798,5.501,28.776,5.669,28.678,5.798z"/> </g> <g id="Capa_1_26_"> </g> </g> </g>

</svg>